# xmcd
#
# Track frame offsets: 
#        182
#        24080
#        45470
#        66207
#        88652
#        106840
#        134015
#        152582
#        185407
#        203955
#        221345
#        261662
#
# Disc length: 3765 seconds
#
# Revision: 2
# Processed by: cddbd v1.5.2PL0 Copyright (c) Steve Scherf et al.
# Submitted via: ExactAudioCopy v0.99pb5
#
DISCID=a60eb30c
DTITLE=B.B. King - Blues Summit
DYEAR=1993
DGENRE=Blues
TTITLE0=Playin' with my friends (with Robert Cray)
TTITLE1=Since I met you baby (with Katie Webster)
TTITLE2=I pity the fool (with Buddy Guy)
TTITLE3=You shook me (with John Lee Hooker)
TTITLE4=Something you got (with Koko Taylor)
TTITLE5=There's something on your mind (with Etta James)
TTITLE6=Little by little (with Lowell Fulson)
TTITLE7=Call it stormy monday  (with Albert Collins)
TTITLE8=You're the boss (with Ruth Brown)
TTITLE9=We're gonna make it (with Irma Thomas)
TTITLE10=I gotta move out of this neighborhood/nobody loves me but my 
TTITLE10=mother
TTITLE11=Everbody's had the blues (with Joe Louis Walker)
EXTD=
EXTT0=
EXTT1=
EXTT2=
EXTT3=
EXTT4=
EXTT5=
EXTT6=
EXTT7=
EXTT8=
EXTT9=
EXTT10=
EXTT11=
PLAYORDER=
